HIERARCHY
ROOT Hips
{
	OFFSET 0.00000 0.00000 0.00000
	CHANNELS 6 Xposition Yposition Zposition Yrotation Zrotation Xrotation 
	JOINT Lumbar
	{
		OFFSET 0 0 0
		CHANNELS 3 Zrotation Xrotation Yrotation
		JOINT Neck
		{
			OFFSET 0.00 0.2701 0.00
			CHANNELS 3 Zrotation Xrotation Yrotation
			End Site
			{
				OFFSET 0.00 0.1379 0.00
			}
		}
		JOINT RightShoulder
		{
			OFFSET 0.0119 0.2289 0.1181
			CHANNELS 3 Zrotation Xrotation Yrotation
			JOINT RightElbow
			{
				OFFSET 0.00 -0.1475 0.00
				CHANNELS 2 Zrotation Yrotation
				JOINT RightWrist
				{
					OFFSET 0.00 -0.1605 0.00
					CHANNELS 2 Zrotation Xrotation
					End Site
					{
						OFFSET 0.0040 -0.1068 0.0006
					}
				}
			}
		}
		JOINT LeftShoulder
		{
			OFFSET 0.0119 0.2289 -0.1181
			CHANNELS 3 Zrotation Xrotation Yrotation
			JOINT LeftElbow
			{
				OFFSET 0.00 -0.1475 0.00
				CHANNELS 2 Zrotation Yrotation
				JOINT LeftWrist
				{
					OFFSET 0.00 -0.1605 0.00
					CHANNELS 2 Zrotation Xrotation
					End Site
					{
						OFFSET 0.0040 -0.1068 -0.0006
					}
				}
			}
		}
	}
	JOINT RightHip
	{
		OFFSET 0.0316 -0.0424 0.0458
		CHANNELS 3 Zrotation Xrotation Yrotation
		JOINT RightKnee
		{
			OFFSET 0.00 -0.2438 0.00
			CHANNELS 1 Zrotation
			JOINT RightAnkle
			{
				OFFSET 0.00 -0.2449 0.00
				CHANNELS 3 Zrotation Xrotation Yrotation
				End Site
				{
					OFFSET 0.1237 -0.0542 0.0051
				}
			}
		}
	}
	JOINT LeftHip
	{
		OFFSET 0.0316 -0.0424 -0.0458
		CHANNELS 3 Zrotation Xrotation Yrotation
		JOINT LeftKnee
		{
			OFFSET 0.00 -0.2438 0.00
			CHANNELS 1 Zrotation
			JOINT LeftAnkle
			{
				OFFSET 0.00 -0.2449 0.00
				CHANNELS 3 Zrotation Xrotation Yrotation
				End Site
				{
					OFFSET 0.1237 -0.0542 -0.0051
				}
			}
		}
	}
}
MOTION
Frames: 19
Frame Time: 0.02
0.29216 0.00034 0.0742 -193.42603 -30.43219 0.93717 38.98208 1.37209 -10.78543 -23.88597 2.23085 -2.11994 -62.00302 -12.53661 -17.44362 134.3007 27.98455 49.20297 -10.31188 -55.32099 12.11916 20.55116 134.28061 -28.41909 45.37498 10.14262 33.28375 -1.34829 -12.18645 -26.201 -6.49619 -1.96174 -3.18903 52.71442 12.8305 6.09689 -17.72477 -10.9403 0.99458 2.92171
0.28631 0.00015 0.07622 -193.24113 -30.441 0.95125 39.01849 1.3444 -10.52346 -24.06636 2.35735 -2.11994 -61.99954 -10.04858 -18.96687 134.30217 27.34951 49.23717 -10.47654 -55.81172 10.79669 23.80536 134.31738 -27.586 45.38189 10.21897 32.83002 -1.5982 -11.93423 -26.34378 -6.49225 -2.0201 -3.21669 52.59769 12.40799 5.87539 -17.81057 -10.9838 0.95354 2.90318
0.28021 -2e-05 0.07871 -192.9508 -30.39787 0.98906 38.98636 1.29623 -10.25918 -24.06089 2.49231 -2.11994 -61.66818 -7.94624 -21.36982 134.30017 27.05417 48.71907 -10.59841 -55.36424 10.81113 28.16141 134.30171 -27.606 43.92606 10.18415 32.30523 -1.88996 -11.68613 -26.46334 -6.50106 -2.09187 -3.25156 52.49152 11.89796 5.59618 -18.68035 -11.06695 0.95081 2.90494
0.27418 -0.00018 0.08102 -192.714 -30.38497 1.01944 39.00222 1.25832 -9.99302 -24.14007 2.62168 -2.11994 -61.38976 -5.82245 -23.40573 134.30081 27.18555 48.2358 -10.61678 -55.28553 10.30111 31.96662 134.25551 -27.34404 42.90037 10.08007 31.81633 -2.1745 -11.44581 -26.59068 -6.50575 -2.15515 -3.28215 52.37821 11.42619 5.3629 -19.18116 -11.12516 0.93009 2.89693
0.26832 -0.00045 0.0832 -192.45153 -30.34311 1.03504 38.95006 1.21581 -9.73927 -24.22338 2.75794 -2.11994 -61.47852 -3.06703 -25.30387 134.30646 25.0328 48.62342 -11.12613 -55.40475 9.43888 35.95759 134.42169 -26.68647 42.83632 10.44278 31.30997 -2.40988 -11.16796 -26.72998 -6.50308 -2.22869 -3.31705 52.27734 10.9599 5.04641 -19.75361 -11.21224 0.91023 2.89046
0.26205 -0.00047 0.08575 -192.2198 -30.34817 1.08737 39.02077 1.17854 -9.45853 -24.25279 2.88203 -2.11994 -60.74591 -1.69909 -27.68737 134.28863 27.53839 47.09609 -10.63411 -54.90985 9.61264 39.8234 134.13612 -27.03936 40.46974 9.84211 30.82316 -2.75772 -10.96551 -26.83937 -6.5191 -2.28404 -3.34468 52.14967 10.46038 4.88409 -20.35659 -11.24829 0.89912 2.88627
0.25468 0.00024 0.08917 -192.07929 -30.51294 1.23428 39.46299 1.15695 -9.11147 -24.1693 2.97074 -2.11994 -57.74561 -4.22696 -31.32182 134.31703 44.26399 40.24158 -7.12727 -52.90585 12.51344 43.19328 132.66397 -29.92094 31.64182 6.35233 30.41832 -3.40059 -10.99934 -26.86535 -6.58094 -2.2855 -3.35036 51.97491 9.9087 5.23416 -20.84623 -11.13912 0.89196 2.87846
0.24689 0.0012 0.09295 -191.97685 -30.72349 1.41751 40.02725 1.14205 -8.73638 -24.03866 3.04701 -2.11994 -53.95046 -8.10675 -35.39097 134.30452 65.40446 31.5164 -2.66037 -50.33133 16.37664 46.38085 130.73661 -33.78338 20.62765 1.94392 30.03436 -4.15557 -11.10209 -26.86398 -6.66176 -2.26838 -3.34856 51.76716 9.32434 5.7322 -21.33813 -10.9764 0.89395 2.87301
0.23929 0.00203 0.09659 -191.86998 -30.90244 1.585 40.52639 1.1266 -8.36872 -23.93538 3.12872 -2.11994 -50.57456 -11.26425 -39.18204 134.23452 83.55806 23.76419 1.19196 -48.05037 19.67602 49.58063 128.98467 -37.23458 10.91959 -1.87 29.63402 -4.86309 -11.15589 -26.87809 -6.73547 -2.25986 -3.35013 51.55546 8.7424 6.1114 -21.82995 -10.8347 0.89949 2.87003
0.23169 0.00292 0.10013 -191.70575 -31.12653 1.7505 41.06752 1.09995 -8.02181 -23.80178 3.21125 -2.11994 -46.93706 -14.8949 -43.3497 134.47271 105.81171 15.46866 5.78623 -45.58593 23.55842 53.12182 127.34864 -40.60644 -0.14363 -6.4232 29.25915 -5.55919 -11.28981 -26.87485 -6.80273 -2.25065 -3.35176 51.42491 8.20667 6.69203 -22.34484 -10.70812 0.8756 2.85364
0.22399 0.00376 0.10395 -191.67058 -31.26636 1.92794 41.5466 1.09845 -7.62703 -23.72113 3.28948 -2.11994 -43.66586 -17.8509 -46.81708 134.07551 120.63469 7.87413 9.07795 -43.38713 26.43409 55.88761 125.38222 -44.32049 -8.90349 -9.66854 28.83851 -6.30283 -11.26624 -26.90614 -6.88838 -2.23893 -3.35178 51.11635 7.57206 6.90692 -22.80273 -10.53713 0.91243 2.86442
0.21602 0.00444 0.10844 -191.98991 -31.17837 2.13377 41.86278 1.16518 -7.09047 -23.81081 3.35492 -2.11994 -41.55489 -18.65496 -48.30284 131.79528 113.29469 2.62771 8.40301 -42.0103 26.31961 56.60744 122.45909 -49.12492 -10.59222 -8.94283 28.27717 -7.17045 -10.85326 -27.00267 -7.01526 -2.21873 -3.3458 50.33327 6.63816 5.91843 -23.09083 -10.25369 1.13426 2.95896
0.20796 0.00506 0.11319 -192.43676 -31.00146 2.34934 42.10541 1.25695 -6.51015 -23.95376 3.41713 -2.11994 -39.85093 -18.7234 -49.05134 128.90339 98.43076 -1.83394 6.40778 -40.93412 25.14801 56.53636 119.24915 -54.16959 -9.90983 -6.89264 27.67264 -8.07831 -10.27011 -27.14348 -7.16101 -2.19747 -3.33894 49.37086 5.61228 4.58348 -23.31944 -9.92786 1.41335 3.07908
0.19998 0.00568 0.11782 -192.8211 -30.85477 2.55766 42.35705 1.3372 -5.96018 -24.06523 3.48347 -2.11994 -37.9915 -19.09958 -50.09735 126.38175 87.37581 -6.62664 5.10694 -39.75967 24.43631 56.7913 116.27225 -58.8392 -10.42493 -5.53807 27.09239 -8.95399 -9.72098 -27.28624 -7.30106 -2.18093 -3.33481 48.48412 4.65195 3.51436 -23.57939 -9.62297 1.6528 3.18109
0.19183 0.00644 0.12246 -193.22665 -30.75194 2.77963 42.71632 1.41861 -5.36351 -24.20645 3.53836 -2.11994 -35.97683 -19.63638 -51.32649 123.46705 74.81757 -11.60707 3.44643 -38.40594 23.84304 57.18981 112.84349 -64.6408 -10.52376 -3.8247 26.48704 -9.89125 -9.34746 -27.32827 -7.42896 -2.14683 -3.32105 47.61919 3.59191 2.00497 -23.82287 -9.30863 1.9488 3.30995
0.18402 0.00688 0.12713 -193.61694 -30.53695 2.97445 42.83196 1.50303 -4.85601 -24.29798 3.61621 -2.11994 -34.39602 -19.645 -51.98219 121.22887 63.56167 -15.96811 2.20245 -37.50059 22.74261 57.09347 110.29666 -68.16055 -10.88185 -2.5263 25.93114 -10.70962 -8.57898 -27.59922 -7.58728 -2.14807 -3.32668 46.66874 2.71594 1.31313 -24.085 -9.00525 2.14208 3.38972
0.17706 0.00647 0.13189 -193.94157 -30.02633 3.09597 42.2958 1.59359 -4.58972 -24.2487 3.76044 -2.11994 -33.88745 -18.38138 -51.32487 120.98694 57.58301 -18.949 2.48429 -37.79735 20.4702 55.90964 110.23369 -65.04279 -12.65681 -2.74326 25.45718 -11.17663 -6.65672 -28.42023 -7.81712 -2.25821 -3.39112 45.50874 2.39132 3.09619 -24.42358 -8.73721 2.02371 3.32072
0.17047 0.00573 0.13667 -194.24493 -29.40735 3.18853 41.51606 1.68576 -4.4181 -24.14627 3.9274 -2.11994 -33.80933 -16.60576 -50.0961 121.45088 53.17942 -21.29739 3.21703 -38.53008 17.72806 54.23965 111.07469 -59.66885 -14.73863 -3.41049 25.04692 -11.52344 -4.36193 -29.48263 -8.0781 -2.40233 -3.47437 44.27249 2.25233 5.68963 -24.7807 -8.48301 1.80238 3.20265
0.16379 0.00514 0.14139 -194.55266 -28.84251 3.29201 40.84501 1.77429 -4.21313 -24.06196 4.08271 -2.11994 -33.55677 -15.05077 -49.06849 121.60638 48.14079 -23.83643 3.70301 -39.0427 15.21124 52.73732 111.51811 -55.50277 -16.59229 -3.83708 24.64968 -11.93476 -2.30627 -30.48258 -8.33019 -2.52327 -3.54553 43.08239 2.01393 7.8229 -25.12268 -8.22604 1.63756 3.1117
